<?xml version="1.0" standalone="no"?>
<!DOCTYPE svg PUBLIC "-//W3C//DTD SVG 20010904//EN"
 "http://www.w3.org/TR/2001/REC-SVG-20010904/DTD/svg10.dtd">
<svg version="1.0" xmlns="http://www.w3.org/2000/svg"
 width="298.000000pt" height="298.000000pt" viewBox="0 0 298.000000 298.000000"
 preserveAspectRatio="xMidYMid meet">
<metadata>
Created by potrace 1.14, written by Peter Selinger 2001-2017
</metadata>
<g transform="translate(0.000000,298.000000) scale(0.100000,-0.100000)"
fill="#000000" stroke="none">
<path d="M1702 2754 c-216 -58 -357 -229 -377 -459 -2 -16 -3 -36 -4 -43 -1
-9 -6 -10 -18 -4 -37 20 -114 24 -482 24 -420 0 -443 -2 -554 -60 -123 -64
-226 -197 -257 -332 -17 -74 -6 -700 14 -782 65 -275 203 -496 426 -679 152
-125 227 -176 283 -193 72 -22 164 -17 228 13 41 19 220 156 310 236 145 130
274 332 329 514 l23 74 26 -30 c36 -40 141 -132 216 -188 22 -17 51 -40 65
-53 14 -12 50 -35 80 -50 48 -23 67 -27 145 -27 83 0 95 3 150 33 33 18 77 47
97 65 20 18 73 61 119 97 194 154 326 341 402 570 47 144 52 193 52 550 0 303
-2 341 -19 394 -54 162 -193 292 -356 330 -91 22 -818 22 -898 0z m858 -159
c96 -22 194 -107 230 -201 22 -56 23 -72 23 -339 0 -154 -2 -302 -6 -330 -26
-218 -122 -425 -265 -573 -30 -32 -117 -106 -256 -219 -72 -59 -157 -74 -213
-38 -119 78 -320 258 -388 349 l-29 38 -2 292 c-1 269 -3 296 -23 350 -26 74
-63 137 -108 187 l-35 39 4 102 c3 85 8 113 30 158 50 105 139 172 252 188 67
10 742 7 786 -3z m-1303 -503 c98 -29 188 -122 219 -229 14 -46 15 -102 11
-371 -4 -305 -5 -320 -30 -410 -50 -174 -154 -352 -268 -457 -77 -71 -253
-211 -286 -229 -37 -19 -97 -23 -134 -8 -35 14 -230 169 -308 245 -158 154
-254 349 -288 582 -11 77 -9 578 3 631 14 66 52 131 104 178 43 39 68 52 139
71 61 16 779 14 838 -3z"/>
<path d="M2029 1926 c-85 -24 -160 -69 -223 -130 -69 -69 -108 -135 -130 -220
-13 -50 -14 -62 -1 -85 7 -15 24 -32 37 -37 15 -7 176 -10 451 -10 l429 1 24
28 c28 33 29 50 9 122 -40 135 -162 262 -304 316 -71 27 -225 35 -292 15z"/>
<path d="M366 1248 c-26 -26 -28 -34 -22 -75 17 -123 140 -281 266 -341 151
-71 305 -67 455 11 129 67 235 218 250 352 2 21 -27 66 -48 74 -12 5 -213 8
-447 8 l-425 0 -29 -29z"/>
</g>
</svg>
